<?xml version="1.0" encoding="utf-8"?>
<!-- Generator: Adobe Illustrator 26.4.1, SVG Export Plug-In . SVG Version: 6.00 Build 0)  -->
<svg version="1.1" id="Слой_1" xmlns="http://www.w3.org/2000/svg" xmlns:xlink="http://www.w3.org/1999/xlink" x="0px" y="0px"
	 viewBox="0 0 314.22 68.88" style="enable-background:new 0 0 314.22 68.88;" xml:space="preserve">
<style type="text/css">
	.st0{fill:#27C6CA;}
</style>
<g>
	<path class="st0" d="M127.04,45.4c0.49,0.29,0.7,0.43,0.93,0.55c12.88,6.33,27.44,9.37,43.68,8.99c23.74-0.56,47.8-8.85,72.1-25.57
		c3.52-2.42,6.94-5.09,10.4-7.67c0.73-0.55,1.47-1.1,1.87-0.37c0.4,0.74-0.27,1.35-1.03,1.92c-1.36,1.02-2.7,2.11-4.07,3.13
		C231,41.32,210.58,51.04,189.67,55.15c-20.52,4.03-38.71,2.29-55.17-3.7c-3.14-1.14-6.11-2.58-9.25-3.92
		c0.06,0.48,0.1,0.9,0.17,1.3c0.46,2.8,0.93,5.59,1.4,8.39c0.11,0.68,0.09,1.38-0.81,1.86c-0.89,0.47-1.15-0.08-1.25-0.76
		c-0.01-0.08-0.04-0.16-0.05-0.24c-0.63-3.74-1.26-7.48-1.89-11.22c-0.25-1.5,0.03-1.92,1.68-2.55c4.01-1.51,8.02-3.01,12.03-4.51
		c0.27-0.1,0.63-0.32,0.8-0.25c0.39,0.15,0.85,0.33,0.94,0.71c0.05,0.21-0.56,0.9-0.95,1.24c-0.29,0.26-0.71,0.31-1.08,0.45
		C133.29,43.05,130.34,44.16,127.04,45.4z"/>
	<path class="st0" d="M127.04,45.4c3.3-1.24,6.25-2.35,9.2-3.46c0.36-0.14,0.79-0.19,1.08-0.45c0.39-0.35,1-1.03,0.95-1.24
		c-0.09-0.38-0.56-0.57-0.94-0.71c-0.17-0.07-0.53,0.15-0.8,0.25c-4.01,1.5-8.02,3-12.03,4.51c-1.65,0.62-1.93,1.05-1.68,2.55
		c0.62,3.74,1.26,7.48,1.89,11.22c0.01,0.08,0.04,0.16,0.05,0.24c0.1,0.68,0.36,1.23,1.25,0.76c0.9-0.48,0.93-1.18,0.81-1.86
		c-0.47-2.79-0.94-5.59-1.4-8.39c-0.07-0.4-0.11-0.81-0.17-1.3c3.14,1.34,6.11,2.78,9.25,3.92c16.46,5.99,34.66,7.73,55.17,3.7
		c20.91-4.11,41.33-13.83,61.27-28.78c1.36-1.02,2.7-2.1,4.07-3.13c0.75-0.57,25.96-21.59,25.56-22.32
		c-0.39-0.73-25.67,20.23-26.4,20.78c-3.46,2.58-6.88,5.25-10.4,7.67c-24.3,16.72-48.36,25-72.1,25.57
		c-16.25,0.39-30.81-2.65-43.68-8.99C127.74,45.83,127.53,45.69,127.04,45.4z"/>
</g>
<g>
	<path class="st0" d="M52.25,50.98c-0.05,0.08-0.2,0.14-0.46,0.17c-0.25,0.03-0.48-0.05-0.67-0.23c-0.17-0.21-0.29-0.45-0.37-0.75
		c-0.08-0.29-0.17-0.7-0.27-1.24c-0.03-0.6-0.03-1.39-0.01-2.38c0.02-0.99,0.05-2.1,0.08-3.32s0.06-2.48,0.08-3.76
		c0.02-0.61,0.03-1.12,0.03-1.54c0-0.42,0-0.84-0.01-1.27c-0.01,0.04-0.02,0.07-0.04,0.11c-0.02,0.04-0.03,0.08-0.04,0.11
		c-0.01,0.04-0.02,0.07-0.03,0.11c-0.06,0.26-0.16,0.54-0.27,0.86c-0.09,0.23-0.16,0.49-0.22,0.77c-0.06,0.29-0.18,0.68-0.36,1.17
		c-0.15,0.55-0.32,1.19-0.51,1.9c-0.19,0.72-0.35,1.29-0.5,1.72c-0.08,0.21-0.14,0.39-0.2,0.54c-0.06,0.15-0.1,0.27-0.11,0.36
		c-0.03,0.2-0.08,0.44-0.17,0.74c-0.09,0.3-0.21,0.59-0.35,0.88c-0.07,0.17-0.16,0.37-0.27,0.6c-0.11,0.23-0.25,0.53-0.41,0.89
		c-0.01,0.11-0.08,0.29-0.22,0.54c-0.13,0.25-0.3,0.54-0.5,0.85c-0.2,0.31-0.41,0.6-0.62,0.88c-0.47,0.59-0.88,0.98-1.23,1.18
		c-0.35,0.2-0.8,0.15-1.37-0.14c-0.27-0.22-0.51-0.45-0.7-0.69c-0.19-0.24-0.34-0.6-0.45-1.08c-0.11-0.48-0.17-1.16-0.2-2.06
		c-0.01-0.57-0.01-1.17,0-1.81c0-0.64,0.02-1.26,0.04-1.86c0.02-0.6,0.05-1.13,0.08-1.57c0.03-0.45,0.05-0.76,0.06-0.93
		c-0.04-0.42-0.08-0.64-0.12-0.66c-0.04-0.02-0.1,0.1-0.18,0.34c-0.08,0.21-0.21,0.63-0.39,1.28c-0.18,0.65-0.39,1.4-0.6,2.26
		c-0.22,0.86-0.42,1.72-0.61,2.57c-0.4,1.4-0.73,2.57-1.01,3.52c-0.27,0.94-0.5,1.7-0.69,2.27c-0.19,0.57-0.33,1-0.43,1.29
		c-0.1,0.29-0.17,0.5-0.23,0.62c-0.05,0.12-0.09,0.2-0.11,0.25c-0.25,0.04-0.49-0.03-0.72-0.2c-0.23-0.17-0.43-0.4-0.61-0.67
		c-0.07-0.16-0.13-0.32-0.19-0.5c-0.06-0.18-0.08-0.38-0.07-0.62c0.01-0.24,0.05-0.5,0.12-0.79c0.12-0.48,0.24-0.88,0.38-1.22
		c0.13-0.34,0.22-0.55,0.25-0.63c0.06-0.13,0.1-0.27,0.12-0.41c0.02-0.14,0.03-0.27,0.02-0.39c0.06-0.12,0.14-0.35,0.25-0.7
		c0.1-0.35,0.21-0.73,0.31-1.13c0.08-0.24,0.2-0.58,0.34-1.02c0.14-0.44,0.3-0.91,0.46-1.42c0.16-0.51,0.3-0.98,0.41-1.4
		c0.44-1.46,0.78-2.63,1.04-3.51c0.25-0.88,0.45-1.44,0.58-1.7c0.1-0.11,0.16-0.29,0.2-0.55c0.04-0.26,0.08-0.45,0.12-0.58
		c0.13-0.51,0.28-0.95,0.45-1.31c0.17-0.36,0.35-0.56,0.53-0.6c0.13-0.03,0.31-0.02,0.54,0.04c0.23,0.05,0.46,0.15,0.7,0.29
		c0.23,0.17,0.46,0.42,0.7,0.74c0.23,0.32,0.37,0.78,0.4,1.38c0.04,0.27,0.07,0.59,0.09,0.98c0.02,0.39,0.03,0.77,0.05,1.14
		c0.01,0.38,0.02,0.7,0.01,0.96c0.03,0.77,0.05,1.51,0.04,2.21c-0.01,0.7-0.02,1.35-0.02,1.94c-0.01,0.59-0.01,1.1,0.01,1.54
		c0.01,0.44,0.03,0.79,0.07,1.06c0.03,0.27,0.1,0.44,0.2,0.5c0.05,0.01,0.12-0.03,0.2-0.11c0.08-0.08,0.13-0.15,0.17-0.23
		c0.07-0.15,0.13-0.31,0.18-0.46c0.05-0.15,0.12-0.34,0.21-0.57c0.18-0.42,0.37-0.88,0.56-1.38c0.19-0.5,0.42-1.12,0.68-1.86
		c0.26-0.74,0.56-1.65,0.91-2.74c0.35-1.09,0.76-2.44,1.25-4.05c0.25-0.66,0.49-1.32,0.7-1.97c0.22-0.65,0.43-1.17,0.64-1.54
		c0.19-0.32,0.48-0.48,0.87-0.48c0.39,0,0.78,0.13,1.16,0.39c0.39,0.26,0.65,0.63,0.79,1.1c0.07,0.23,0.11,0.65,0.14,1.25
		c0.02,0.61,0.02,1.3,0,2.06c-0.02,0.77-0.07,1.52-0.15,2.26c0.01,0.29,0.01,0.68,0,1.17c-0.01,0.49-0.03,0.98-0.06,1.49
		c-0.03,0.51-0.05,0.96-0.09,1.37c0.01,0.59,0.01,1.05,0.01,1.4c0,0.35,0.05,0.73,0.14,1.16c-0.09,0.3-0.1,0.7-0.04,1.2
		c0.06,0.51,0.15,1.02,0.27,1.55c0.08,0.66,0.04,1.14-0.11,1.45c-0.15,0.31-0.26,0.46-0.33,0.46C52.4,50.77,52.31,50.83,52.25,50.98
		z"/>
	<path class="st0" d="M60.24,47.83c-0.53,0.27-0.92,0.43-1.18,0.48c-0.26,0.05-0.54,0-0.85-0.16c-0.1-0.06-0.21-0.13-0.33-0.21
		c-0.12-0.08-0.22-0.24-0.29-0.51c-0.04-0.11,0-0.27,0.11-0.48c0.12-0.21,0.34-0.33,0.66-0.37c0.18,0.05,0.41,0.02,0.68-0.07
		c0.27-0.09,0.54-0.25,0.82-0.47c0.27-0.22,0.51-0.48,0.72-0.81c0.24-0.47,0.42-0.9,0.54-1.3c0.12-0.4,0.16-0.71,0.13-0.92
		c-0.04-0.1-0.08-0.18-0.13-0.26c-0.05-0.07-0.12-0.15-0.2-0.21c-0.27,0.16-0.48,0.33-0.63,0.49c-0.15,0.16-0.29,0.33-0.42,0.5
		c-0.42,0.53-0.72,0.93-0.91,1.23c-0.19,0.29-0.32,0.55-0.41,0.78c-0.09,0.23-0.2,0.51-0.33,0.85c-0.08,0.24-0.2,0.47-0.34,0.69
		c-0.14,0.21-0.24,0.37-0.29,0.47c-0.02,0.37-0.18,0.62-0.48,0.75c-0.43,0.01-0.75-0.07-0.97-0.24c-0.22-0.17-0.34-0.46-0.37-0.89
		c-0.02-0.24-0.02-0.57,0-1c0.02-0.43,0.04-0.76,0.08-0.99c0.13-1.65,0.33-3.02,0.58-4.1c0.25-1.08,0.4-1.86,0.45-2.36l0.34-0.34
		c0.28-0.05,0.55-0.02,0.79,0.07c0.24,0.09,0.44,0.36,0.59,0.79c0.02,0.08,0,0.29-0.06,0.61c-0.06,0.32-0.13,0.7-0.2,1.12
		c-0.08,0.42-0.15,0.82-0.22,1.19C58.05,42.54,58,42.82,57.97,43c-0.02,0.14,0.03,0.14,0.14-0.02c0.11-0.15,0.28-0.39,0.51-0.7
		c0.17-0.23,0.35-0.42,0.52-0.57c0.17-0.15,0.32-0.27,0.44-0.34c0.21-0.15,0.42-0.26,0.64-0.32c0.22-0.07,0.38-0.12,0.5-0.16
		c0.56-0.11,0.99-0.09,1.29,0.05c0.3,0.14,0.51,0.33,0.64,0.56c0.13,0.23,0.21,0.43,0.25,0.59c0.14,0.25,0.24,0.5,0.31,0.76
		c0.07,0.26,0.1,0.53,0.09,0.81c-0.02,0.14-0.08,0.37-0.19,0.68c-0.1,0.31-0.23,0.63-0.37,0.95c-0.14,0.33-0.31,0.59-0.51,0.79
		c-0.12,0.18-0.3,0.39-0.55,0.64c-0.25,0.25-0.5,0.47-0.77,0.68C60.65,47.59,60.43,47.74,60.24,47.83z M65.94,47.01
		c-0.5,0.08-0.89,0.06-1.17-0.06c-0.28-0.12-0.53-0.39-0.76-0.8c-0.08-0.36-0.11-0.68-0.09-0.95c0.02-0.27,0.03-0.53,0.02-0.77
		c0-0.61,0.03-1.06,0.09-1.35c0.05-0.3,0.12-0.64,0.18-1.04c0.04-0.2,0.08-0.42,0.11-0.67c0.03-0.25,0.06-0.49,0.07-0.72
		c0.02-0.28,0.04-0.54,0.05-0.78c0.01-0.23,0.02-0.47,0.04-0.7c0.02-0.3,0.03-0.59,0.04-0.89c0-0.29,0-0.61,0-0.93
		c0.21-0.36,0.48-0.55,0.81-0.57c0.32-0.02,0.71,0.14,1.17,0.47c0.2,0.28,0.33,0.52,0.38,0.72c0.05,0.2,0.06,0.43,0.01,0.7
		c-0.01,0.09-0.04,0.26-0.07,0.5c-0.03,0.24-0.07,0.53-0.11,0.85c-0.04,0.33-0.09,0.68-0.14,1.06c-0.05,0.46-0.1,0.93-0.14,1.39
		c-0.04,0.47-0.08,0.87-0.11,1.22c-0.03,0.34-0.05,0.58-0.05,0.7c-0.04,0.29-0.06,0.54-0.06,0.77c0,0.23,0.01,0.52,0.04,0.87
		c0.06,0.12,0.07,0.28,0.04,0.46C66.24,46.65,66.13,46.83,65.94,47.01z"/>
	<path class="st0" d="M77.98,44.36c-0.36,0.1-0.73,0.11-1.12,0.05c-0.39-0.06-0.73-0.27-1.03-0.61c-0.23-0.28-0.42-0.59-0.57-0.94
		c-0.15-0.35-0.22-0.69-0.23-1.04c-0.04-1.13-0.06-1.96-0.03-2.48c0.02-0.52,0.03-0.82,0.04-0.89c0.02-0.07,0.04-0.23,0.06-0.48
		c0.02-0.25,0.07-0.46,0.13-0.65c0.03-0.27-0.01-0.56-0.12-0.88c-0.05-0.13-0.06-0.29-0.04-0.48c0.02-0.19,0.07-0.34,0.15-0.45
		c0.23-0.28,0.39-0.61,0.48-0.99c0.02-0.13,0.07-0.32,0.13-0.59c0.06-0.26,0.14-0.54,0.22-0.83c0.08-0.29,0.15-0.52,0.19-0.7
		c0.19-0.39,0.38-0.84,0.56-1.34c0.18-0.51,0.41-0.96,0.69-1.35c0.13-0.41,0.33-0.79,0.59-1.15c0.26-0.36,0.52-0.7,0.78-1.03
		c0.26-0.33,0.47-0.61,0.63-0.85c0.1-0.18,0.34-0.35,0.71-0.52c0.38-0.17,0.67-0.31,0.89-0.43c0.24-0.14,0.55-0.16,0.92-0.05
		c0.37,0.11,0.63,0.22,0.78,0.35c0.34,0.37,0.57,0.7,0.68,0.98c0.11,0.28,0.15,0.61,0.12,0.99c-0.04,0.38-0.13,0.92-0.29,1.61
		c-0.18,0.73-0.52,1.48-1.01,2.25c-0.49,0.77-1.02,1.46-1.61,2.09c-0.25,0.35-0.54,0.69-0.86,1.02c-0.32,0.33-0.64,0.63-0.94,0.88
		c-0.19,0.16-0.38,0.31-0.59,0.45c-0.2,0.14-0.41,0.28-0.62,0.41c-0.11,0.06-0.17,0.17-0.17,0.32c-0.01,0.16-0.03,0.35-0.06,0.58
		c0.02,0.15,0.01,0.29-0.03,0.41c-0.03,0.12-0.06,0.21-0.08,0.27c-0.04,0.06-0.06,0.22-0.07,0.48c-0.01,0.26-0.01,0.57,0,0.93
		c0.01,0.36,0.02,0.71,0.03,1.06c0.01,0.34,0.01,0.61,0.02,0.8c0.01,0.19,0.03,0.32,0.07,0.39c0.04,0.07,0.11,0.11,0.2,0.12
		c0.17-0.07,0.29-0.18,0.36-0.33c0.06-0.14,0.14-0.29,0.22-0.45c0.08-0.26,0.14-0.5,0.19-0.72c0.05-0.22,0.09-0.49,0.14-0.81
		c0.03-0.2,0.05-0.42,0.07-0.68c0.02-0.25,0.05-0.47,0.1-0.66c-0.08-0.35-0.14-0.6-0.19-0.78c-0.05-0.17-0.1-0.31-0.15-0.42
		c-0.05-0.11-0.11-0.22-0.19-0.35c0.02-0.47,0.07-0.75,0.15-0.85c0.08-0.1,0.18-0.14,0.31-0.13c0.34-0.01,0.65,0.04,0.92,0.13
		c0.27,0.1,0.53,0.21,0.76,0.35c0.12,0.06,0.21,0.15,0.28,0.27c0.07,0.12,0.1,0.23,0.08,0.32c0.03,0.2,0.05,0.42,0.08,0.64
		c0.02,0.23,0.06,0.43,0.1,0.61c-0.06,0.29-0.09,0.65-0.1,1.08c-0.01,0.43-0.05,0.84-0.12,1.22c-0.05,0.24-0.15,0.56-0.29,0.96
		c-0.14,0.4-0.26,0.71-0.35,0.92c-0.16,0.31-0.4,0.63-0.74,0.94c-0.34,0.32-0.64,0.63-0.92,0.93L77.98,44.36z M77.62,34.12
		c0.11,0.01,0.21-0.02,0.31-0.08c0.1-0.06,0.19-0.13,0.28-0.2c0.53-0.39,1.03-0.87,1.48-1.43c0.45-0.56,0.85-1.13,1.17-1.71
		c0.33-0.58,0.55-1.09,0.66-1.53c0.06-0.2,0.12-0.46,0.18-0.77c0.06-0.31,0.06-0.64,0-1.01l-0.11-0.16
		c-0.25,0.28-0.5,0.59-0.75,0.94c-0.25,0.35-0.54,0.79-0.87,1.33c-0.13,0.2-0.3,0.48-0.52,0.83c-0.22,0.35-0.44,0.74-0.69,1.18
		c-0.24,0.43-0.47,0.88-0.68,1.33C77.88,33.29,77.72,33.72,77.62,34.12z"/>
	<path class="st0" d="M87.1,42.1c-0.46,0.19-0.94,0.25-1.45,0.19c-0.51-0.06-0.95-0.24-1.34-0.55c-0.39-0.3-0.64-0.72-0.76-1.25
		c-0.16-0.48-0.24-1.08-0.26-1.8c-0.01-0.71,0.05-1.45,0.18-2.21c0.13-0.76,0.34-1.41,0.61-1.98c0.24-0.47,0.49-0.9,0.75-1.31
		c0.26-0.4,0.5-0.69,0.74-0.86c0.21-0.15,0.48-0.29,0.8-0.42c0.32-0.13,0.55-0.21,0.68-0.24c0.28,0.01,0.59,0.05,0.95,0.13
		c0.35,0.08,0.55,0.21,0.6,0.41l0.15,0.1c0.1-0.02,0.24,0.07,0.41,0.28c0.18,0.21,0.33,0.46,0.47,0.75
		c0.13,0.29,0.17,0.54,0.11,0.74c0,0.33-0.06,0.66-0.18,1c-0.12,0.34-0.25,0.52-0.38,0.55c-0.07,0.01-0.13,0.03-0.18,0.05
		c-0.06,0.02-0.07,0.07-0.06,0.15c0.02,0.08-0.06,0.14-0.23,0.18c-0.17,0.04-0.36,0.04-0.55,0.02c-0.2-0.03-0.33-0.1-0.41-0.22
		c-0.02-0.08-0.03-0.19-0.02-0.33c0-0.14,0-0.37,0-0.7c0-0.48-0.06-0.79-0.18-0.93c-0.12-0.14-0.33-0.1-0.63,0.1
		c-0.36,0.32-0.64,0.66-0.83,1.03c-0.2,0.36-0.34,0.84-0.42,1.43c-0.09,0.59-0.14,1.4-0.17,2.42c-0.01,0.4,0.04,0.7,0.16,0.9
		c0.12,0.2,0.21,0.3,0.26,0.3c0.24,0.01,0.5-0.03,0.76-0.13c0.26-0.1,0.47-0.22,0.63-0.36c0.23-0.19,0.44-0.39,0.61-0.59
		c0.17-0.2,0.36-0.42,0.57-0.66c0.07-0.07,0.12-0.18,0.16-0.33c0.03-0.15,0.11-0.28,0.23-0.37c0.09-0.23,0.23-0.37,0.44-0.42
		c0.2-0.05,0.41-0.1,0.6-0.15c0.14,0,0.3,0.06,0.47,0.15c0.18,0.1,0.32,0.2,0.42,0.31c0.1,0.11,0.11,0.2,0.02,0.27
		c-0.07,0.01-0.1,0.07-0.1,0.15c0.05,0.06,0.01,0.22-0.11,0.49c-0.12,0.27-0.29,0.57-0.49,0.89c-0.21,0.32-0.41,0.6-0.6,0.85
		c-0.2,0.24-0.34,0.37-0.44,0.4c-0.16,0.04-0.24,0.1-0.21,0.2c0.01,0.03-0.09,0.14-0.3,0.33c-0.21,0.19-0.45,0.38-0.73,0.58
		C87.56,41.85,87.31,42,87.1,42.1z"/>
	<path class="st0" d="M97.74,39.12c-0.43,0.39-0.92,0.67-1.46,0.83c-0.54,0.16-1.07,0.2-1.59,0.12c-0.52-0.08-0.97-0.28-1.35-0.59
		c-0.21-0.18-0.44-0.48-0.7-0.92c-0.25-0.44-0.42-1.07-0.5-1.9c-0.07-0.78,0-1.6,0.19-2.45c0.2-0.86,0.5-1.64,0.92-2.36
		c0.41-0.71,0.92-1.25,1.51-1.61c0.21-0.13,0.43-0.25,0.66-0.34c0.23-0.09,0.55-0.17,0.95-0.22c0.39-0.03,0.75-0.01,1.08,0.06
		c0.33,0.07,0.58,0.18,0.74,0.31c0.32,0.2,0.55,0.42,0.69,0.65c0.14,0.23,0.22,0.46,0.26,0.69c0.03,0.55-0.07,1.17-0.33,1.86
		c-0.25,0.7-0.69,1.27-1.32,1.72c-0.25,0.18-0.57,0.32-0.94,0.44c-0.37,0.12-0.9,0.18-1.59,0.2c-0.41,0.01-0.66,0.1-0.75,0.3
		c-0.09,0.19-0.07,0.53,0.05,1c0.1,0.29,0.23,0.53,0.38,0.73c0.16,0.2,0.39,0.31,0.71,0.32c0.39-0.02,0.67-0.07,0.82-0.17
		c0.15-0.09,0.34-0.23,0.56-0.4c0.11-0.11,0.22-0.23,0.32-0.36c0.1-0.13,0.2-0.25,0.3-0.38c0.1-0.13,0.19-0.22,0.26-0.29
		c0.07-0.08,0.14-0.14,0.22-0.18c0.08-0.03,0.16-0.06,0.24-0.08c0.18-0.02,0.38,0.04,0.58,0.18c0.2,0.14,0.35,0.29,0.44,0.45
		c0.03,0.13-0.01,0.34-0.12,0.61c-0.11,0.28-0.28,0.57-0.49,0.89C98.27,38.56,98.02,38.85,97.74,39.12z M96.19,33.68
		c0.1-0.07,0.25-0.23,0.43-0.46c0.18-0.23,0.34-0.47,0.48-0.72c0.14-0.25,0.19-0.43,0.16-0.54c-0.04-0.18-0.19-0.31-0.46-0.39
		c-0.27-0.08-0.58-0.03-0.94,0.13c-0.12,0.06-0.26,0.19-0.41,0.38c-0.15,0.19-0.29,0.4-0.43,0.63c-0.14,0.23-0.26,0.45-0.35,0.65
		c-0.09,0.2-0.15,0.36-0.18,0.47c0.08,0.07,0.23,0.1,0.44,0.11c0.21,0.01,0.43-0.02,0.67-0.07C95.84,33.81,96.03,33.75,96.19,33.68z
		"/>
	<path class="st0" d="M100.66,38.39c-0.06-0.21-0.1-0.51-0.11-0.91c-0.01-0.4,0-0.79,0.02-1.17c0.03-0.39,0.05-0.67,0.08-0.85
		c0.05-0.49,0.09-0.99,0.15-1.5c0.05-0.5,0.11-1,0.16-1.5c0.05-0.5,0.1-0.96,0.15-1.38c0-0.02,0-0.03,0-0.04
		c0.01-0.01,0.01-0.02,0-0.04c0-0.02-0.01-0.04-0.01-0.06c-0.01-0.02-0.01-0.05-0.02-0.09c-0.01-0.03-0.02-0.07-0.03-0.12
		c-0.14-0.33-0.17-0.62-0.08-0.86c0.09-0.24,0.15-0.41,0.16-0.5c0.12-0.16,0.26-0.29,0.43-0.38c0.17-0.09,0.39-0.09,0.65-0.01
		c0.23-0.12,0.57-0.26,1.01-0.43c0.44-0.17,0.75-0.32,0.95-0.47c0.21-0.06,0.39-0.12,0.53-0.17c0.14-0.05,0.29-0.09,0.44-0.14
		c0.15-0.04,0.33-0.07,0.55-0.08c0.21-0.05,0.46-0.02,0.74,0.08c0.28,0.1,0.57,0.28,0.87,0.52c0.1,0.29,0.13,0.53,0.08,0.72
		c-0.04,0.19-0.19,0.33-0.45,0.42c-0.1,0.02-0.3,0.07-0.61,0.13c-0.3,0.07-0.62,0.15-0.94,0.25c-0.32,0.1-0.58,0.21-0.78,0.34
		c-0.15,0.09-0.31,0.16-0.47,0.22c-0.16,0.06-0.31,0.11-0.45,0.15c-0.14,0.04-0.26,0.1-0.36,0.17c-0.05,0.24-0.07,0.5-0.07,0.79
		c0,0.29-0.01,0.56-0.05,0.79c-0.02,0.28-0.05,0.55-0.08,0.81c-0.03,0.26-0.06,0.51-0.08,0.74c-0.02,0.24-0.05,0.46-0.07,0.68
		c-0.03,0.35-0.05,0.67-0.08,0.96c-0.03,0.29-0.06,0.56-0.08,0.8c-0.02,0.24-0.05,0.46-0.07,0.68c-0.03,0.39-0.07,0.7-0.1,0.94
		c-0.03,0.24-0.06,0.43-0.07,0.56c-0.01,0.13-0.04,0.24-0.07,0.31c-0.1,0.09-0.24,0.17-0.41,0.25c-0.17,0.07-0.35,0.12-0.51,0.14
		c-0.27,0.03-0.47-0.03-0.59-0.17C100.86,38.85,100.75,38.65,100.66,38.39z"/>
	<path class="st0" d="M111.62,36.71c-0.08,0.03-0.25,0.04-0.53,0.03c-0.27-0.02-0.57-0.07-0.89-0.16c-0.32-0.09-0.59-0.2-0.79-0.33
		c-0.27-0.18-0.46-0.37-0.59-0.56c-0.13-0.19-0.22-0.39-0.26-0.6c-0.15-0.19-0.25-0.42-0.32-0.69c-0.07-0.27-0.14-0.53-0.22-0.8
		c-0.1-0.44-0.1-0.92,0.01-1.42c0.11-0.5,0.19-0.87,0.26-1.11c0.05-0.34,0.18-0.73,0.4-1.18c0.22-0.45,0.49-0.89,0.8-1.32
		c0.31-0.43,0.62-0.77,0.93-1.01c0.21-0.2,0.55-0.4,1.01-0.6c0.46-0.2,0.91-0.27,1.35-0.23c0.21,0.01,0.4,0.06,0.57,0.16
		c0.17,0.1,0.32,0.2,0.44,0.29c-0.02-0.31-0.05-0.69-0.11-1.15c-0.06-0.46-0.14-0.93-0.24-1.41c-0.1-0.48-0.22-0.91-0.37-1.31
		c-0.15-0.39-0.32-0.67-0.51-0.83c-0.47-0.41-1.04-0.64-1.7-0.67c-0.66-0.03-1.23,0.12-1.71,0.47c-0.24-0.07-0.42-0.16-0.54-0.27
		c-0.12-0.11-0.23-0.26-0.34-0.44c-0.04-0.35,0.03-0.65,0.22-0.88c0.19-0.23,0.48-0.44,0.88-0.61c0.22-0.1,0.48-0.19,0.77-0.27
		c0.29-0.08,0.62-0.07,0.97,0.04c0.97,0.1,1.74,0.38,2.31,0.85c0.57,0.47,1.02,1.07,1.34,1.79c0.32,0.72,0.59,1.53,0.81,2.41
		c0.07,0.23,0.13,0.52,0.18,0.88c0.05,0.36,0.08,0.74,0.08,1.14c0.01,0.29,0.01,0.58,0,0.87c-0.01,0.29-0.05,0.54-0.1,0.76
		c0,0.23-0.01,0.45-0.03,0.67c-0.02,0.22-0.05,0.45-0.08,0.68c-0.12,0.96-0.34,1.89-0.67,2.81c-0.33,0.91-0.78,1.72-1.33,2.42
		C113.04,35.82,112.38,36.35,111.62,36.71z M110.91,34.72c0.28-0.08,0.53-0.27,0.76-0.58c0.23-0.31,0.45-0.67,0.64-1.09
		c0.19-0.41,0.37-0.8,0.53-1.17c0.08-0.17,0.16-0.35,0.22-0.53c0.06-0.18,0.12-0.37,0.17-0.57c0.05-0.2,0.09-0.4,0.11-0.6
		c0.06-0.41,0.09-0.78,0.08-1.11c-0.01-0.33-0.08-0.52-0.22-0.57c-0.19-0.1-0.46-0.03-0.81,0.19c-0.35,0.22-0.67,0.51-0.98,0.85
		c-0.22,0.24-0.42,0.54-0.58,0.89c-0.16,0.36-0.3,0.69-0.42,1.01c-0.07,0.17-0.12,0.34-0.18,0.49c-0.05,0.16-0.09,0.28-0.12,0.38
		c-0.06,0.19-0.09,0.43-0.09,0.72c0,0.29,0.04,0.57,0.09,0.83s0.15,0.48,0.29,0.66C110.56,34.72,110.72,34.78,110.91,34.72z"/>
	<path class="st0" d="M118.68,34.44c-0.1-0.12-0.27-0.22-0.52-0.3c-0.25-0.08-0.38-0.16-0.4-0.22c-0.01-0.07-0.07-0.16-0.18-0.28
		c-0.11-0.12-0.2-0.21-0.28-0.26c-0.1-0.08-0.13-0.33-0.09-0.75c0.05-0.42,0.14-0.93,0.28-1.55c0.14-0.62,0.3-1.25,0.49-1.9
		c0.1-0.16,0.2-0.36,0.28-0.61c0.08-0.24,0.15-0.41,0.2-0.49c-0.01-0.07,0-0.13,0.03-0.2c0.04-0.07,0.09-0.11,0.15-0.12l0.11-0.44
		c0.02-0.07,0.09-0.23,0.22-0.46c0.13-0.24,0.29-0.5,0.48-0.79c0.19-0.29,0.39-0.58,0.6-0.85c0.21-0.27,0.38-0.47,0.53-0.61
		c0.29-0.31,0.63-0.49,1-0.56c0.37-0.07,0.72-0.02,1.03,0.13c0.06,0.04,0.19,0.11,0.4,0.22c0.21,0.11,0.44,0.23,0.7,0.36
		c0.26,0.13,0.49,0.25,0.69,0.37l1.1,0.61l-0.15,1.33c-0.07,0.71,0,1.3,0.21,1.77c0.21,0.47,0.46,0.87,0.75,1.18
		c0.12,0.16,0.26,0.28,0.43,0.35c0.16,0.07,0.36,0.09,0.6,0.07c0.14-0.01,0.27,0.01,0.4,0.07c0.13,0.06,0.22,0.18,0.26,0.36
		c0.09,0.4,0.08,0.7-0.02,0.9c-0.1,0.2-0.23,0.34-0.39,0.41c-0.53,0.19-1.06,0.24-1.6,0.17c-0.53-0.07-1.08-0.44-1.65-1.11
		c-0.09-0.08-0.22-0.25-0.38-0.5c-0.17-0.25-0.27-0.41-0.3-0.49c-0.05,0.1-0.11,0.22-0.19,0.37c-0.08,0.15-0.16,0.28-0.23,0.4
		c-0.91,1.45-1.74,2.44-2.49,2.98C120.02,34.53,119.32,34.68,118.68,34.44z M120.09,31.78c0.22-0.19,0.49-0.5,0.83-0.92
		c0.45-0.6,0.83-1.1,1.12-1.49c0.29-0.39,0.56-0.88,0.79-1.45l0.35-1.01c-0.25-0.34-0.45-0.56-0.61-0.64
		c-0.16-0.09-0.3-0.11-0.43-0.09c-0.21,0.05-0.44,0.24-0.68,0.58c-0.24,0.34-0.48,0.81-0.74,1.41c-0.26,0.6-0.53,1.34-0.82,2.22
		c-0.13,0.41-0.24,0.98-0.32,1.7C119.7,32.08,119.87,31.98,120.09,31.78z"/>
	<path class="st0" d="M136.84,30.77c-0.21,0.05-0.39,0.04-0.53-0.01c-0.14-0.05-0.32-0.14-0.53-0.24c-0.39-0.26-0.72-0.56-0.99-0.89
		c-0.27-0.34-0.42-0.65-0.43-0.94c0.02-0.14-0.01-0.34-0.08-0.58c-0.1-0.06-0.14-0.11-0.11-0.14c0.03-0.03,0.05-0.08,0.07-0.16
		c0.1-0.02,0.11-0.12,0.04-0.29c-0.06-0.12-0.07-0.42-0.03-0.89c0.04-0.47,0.14-0.93,0.3-1.38c0.06-0.19,0.16-0.44,0.3-0.75
		c0.14-0.32,0.29-0.64,0.47-0.96c0.18-0.32,0.35-0.59,0.51-0.8c0.33-0.44,0.66-0.8,0.96-1.1c0.31-0.29,0.63-0.52,0.98-0.68
		c0.34-0.16,0.71-0.29,1.1-0.37c0.39-0.09,0.73-0.02,1.04,0.18c0.42,0.08,0.73,0.24,0.95,0.49c0.22,0.25,0.4,0.58,0.55,1.02
		c0.16,0.48,0.24,1.1,0.25,1.85c0.01,0.75-0.21,1.67-0.66,2.75c-0.28,0.68-0.58,1.24-0.9,1.65c-0.32,0.42-0.69,0.82-1.11,1.21
		c-0.29,0.31-0.63,0.53-1.02,0.67C137.59,30.53,137.22,30.66,136.84,30.77z M138.7,27.2c0.29-0.39,0.48-0.8,0.55-1.21
		c0.07-0.41,0.14-0.9,0.21-1.45c0.04-0.11,0.05-0.29,0.03-0.52c-0.03-0.24-0.07-0.46-0.14-0.68c-0.07-0.22-0.15-0.33-0.26-0.34
		c-0.17-0.08-0.33-0.08-0.46,0.01c-0.14,0.09-0.3,0.24-0.49,0.46c-0.4,0.52-0.75,1.1-1.06,1.73c-0.3,0.63-0.45,1.35-0.44,2.16
		c0.04,0.42,0.16,0.72,0.34,0.9c0.19,0.18,0.43,0.18,0.73,0.02C138,28.1,138.33,27.75,138.7,27.2z"/>
	<path class="st0" d="M149.68,18.51c0.2-0.18,0.48-0.29,0.83-0.33c0.36-0.04,0.67,0.05,0.95,0.24c0.28,0.2,0.4,0.56,0.38,1.08
		c-0.04,0.15-0.08,0.32-0.14,0.52c-0.06,0.2-0.11,0.42-0.17,0.65c-0.05,0.23-0.1,0.44-0.16,0.64c-0.05,0.2-0.08,0.37-0.08,0.51
		l0.02,0.07c0.21,0.02,0.38,0.16,0.49,0.41c0.12,0.25,0.16,0.44,0.14,0.57c-0.08,0.21-0.14,0.34-0.21,0.41
		c-0.06,0.07-0.23,0.17-0.49,0.32c-0.06,0.03-0.11,0.06-0.15,0.08c-0.04,0.03-0.06,0.07-0.06,0.14c0.02,0.32,0.03,0.63,0.03,0.91
		c0,0.28,0,0.56-0.02,0.83c-0.02,0.27-0.04,0.55-0.06,0.83c0,0.14-0.04,0.29-0.1,0.46s-0.26,0.31-0.58,0.41
		c-0.36-0.06-0.61-0.1-0.77-0.13c-0.15-0.03-0.29-0.07-0.4-0.13c-0.11-0.04-0.2-0.2-0.25-0.46c-0.05-0.27-0.06-0.5-0.04-0.72
		c0.03-0.27,0.06-0.5,0.09-0.71c0.03-0.21,0.04-0.52,0.01-0.95c-0.18,0.04-0.35,0.09-0.5,0.15c-0.15,0.06-0.29,0.12-0.43,0.17
		c-0.13,0.06-0.27,0.12-0.4,0.18c-0.13,0.06-0.27,0.12-0.42,0.17c-0.1,0.02-0.21,0.05-0.32,0.07c-0.12,0.03-0.23,0.05-0.35,0.06
		c-0.12,0.02-0.25,0.03-0.41,0.03l-0.08,0.1c0.02,0.17,0,0.4-0.06,0.7c-0.06,0.3-0.06,0.59,0,0.87c0.03,0.22,0.05,0.51,0.05,0.88
		c0,0.37,0.02,0.67,0.06,0.91c0.06,0.37-0.09,0.63-0.46,0.79c-0.37,0.16-0.85,0.06-1.45-0.29c-0.08-0.03-0.14-0.08-0.17-0.14
		c-0.04-0.06-0.09-0.14-0.14-0.23l-0.05-1.96c0.01-0.25,0.02-0.48,0.03-0.69c0-0.22,0.02-0.43,0.04-0.64
		c0.05-0.39,0.1-0.81,0.13-1.26c0.04-0.45,0.1-0.81,0.2-1.09c0.02-0.07,0.03-0.18,0.05-0.32c0.01-0.14,0.03-0.29,0.04-0.45
		c0.02-0.16,0.03-0.31,0.05-0.45c0.02-0.14,0.04-0.26,0.05-0.35c0.03-0.18,0.06-0.44,0.1-0.79c0.04-0.35,0.07-0.67,0.11-0.97
		s0.05-0.46,0.05-0.48c0.01-0.19,0.08-0.33,0.22-0.42c0.14-0.09,0.25-0.15,0.35-0.17c0.53-0.12,0.92-0.06,1.18,0.18
		c0.26,0.24,0.41,0.47,0.44,0.71c0.01,0.1,0.02,0.2,0.04,0.28c0.02,0.08,0.02,0.15-0.01,0.21l-0.5,3.01l-0.02,0.13
		c0.16-0.04,0.33-0.09,0.49-0.17c0.16-0.08,0.33-0.14,0.49-0.17c0.08-0.03,0.2-0.08,0.37-0.13c0.17-0.05,0.37-0.11,0.59-0.16
		c0.22-0.05,0.45-0.08,0.7-0.08c0.1-0.56,0.17-1.04,0.2-1.43c0.03-0.4,0.13-0.85,0.29-1.37c0.01-0.04,0.02-0.16,0.03-0.38
		C149.54,18.96,149.59,18.74,149.68,18.51z"/>
	<path class="st0" d="M154.44,27.36c-0.23-0.02-0.45-0.11-0.67-0.27s-0.38-0.27-0.5-0.33c-0.03-0.05-0.06-0.09-0.09-0.13
		c-0.04-0.04-0.07-0.09-0.09-0.13c-0.04-0.16-0.04-0.28-0.02-0.36c0.03-0.07,0.1-0.21,0.23-0.41c0.07-0.21,0.17-0.33,0.28-0.37
		c0.11-0.04,0.22-0.06,0.33-0.05c0.27-0.32,0.54-0.63,0.79-0.92c0.26-0.29,0.44-0.59,0.57-0.89c0.15-0.4,0.3-0.8,0.44-1.21
		c0.14-0.41,0.28-0.82,0.41-1.23c0.05-0.17,0.1-0.36,0.16-0.58c0.05-0.22,0.11-0.44,0.16-0.67c0.05-0.23,0.1-0.42,0.13-0.59
		c-0.17,0-0.3-0.01-0.37-0.03c-0.08-0.03-0.17-0.06-0.28-0.11c-0.09-0.17-0.2-0.35-0.32-0.55c-0.12-0.2-0.2-0.35-0.25-0.46
		c-0.09-0.41,0.05-0.71,0.42-0.9c0.47-0.22,0.88-0.39,1.24-0.51c0.35-0.11,0.7-0.25,1.02-0.41c0.31-0.16,0.65-0.26,1.02-0.32
		c0.37-0.06,0.72-0.05,1.06,0.01c0.18,0.03,0.35,0.09,0.51,0.17c0.16,0.09,0.32,0.22,0.47,0.39c0.24,0.22,0.42,0.49,0.53,0.79
		c0.11,0.3,0.19,0.58,0.23,0.82c0.04,0.24,0.08,0.39,0.11,0.45c-0.01,0.19-0.02,0.49-0.04,0.89c-0.01,0.4-0.04,0.83-0.06,1.28
		c-0.03,0.46-0.06,0.86-0.09,1.23c-0.03,0.36-0.05,0.6-0.06,0.73c-0.01,0.28-0.03,0.57-0.08,0.86c-0.05,0.3-0.06,0.57-0.04,0.82
		c0.01,0.36-0.08,0.63-0.26,0.8c-0.19,0.17-0.35,0.32-0.5,0.43c-0.17,0.11-0.33,0.13-0.5,0.06c-0.17-0.07-0.33-0.14-0.49-0.23
		c-0.18-0.29-0.3-0.51-0.34-0.66c-0.04-0.15-0.05-0.38-0.01-0.68c0.02-0.14,0.04-0.46,0.07-0.95c0.03-0.49,0.06-1.04,0.1-1.66
		c0.04-0.61,0.08-1.18,0.12-1.7c0.04-0.52,0.06-0.88,0.07-1.09c0-0.17-0.01-0.32-0.02-0.45c-0.01-0.13-0.04-0.25-0.08-0.36
		c-0.12-0.01-0.29,0.01-0.51,0.06s-0.41,0.11-0.58,0.18c-0.03,0.02-0.06,0.04-0.11,0.05c-0.04,0.01-0.08,0.03-0.11,0.05
		c0,0.31-0.02,0.62-0.05,0.93c-0.03,0.31-0.09,0.64-0.16,0.99c-0.07,0.35-0.15,0.75-0.26,1.18c-0.1,0.44-0.23,0.93-0.38,1.48
		c-0.09,0.37-0.19,0.7-0.3,1c-0.11,0.3-0.22,0.59-0.35,0.86l-0.21,0.46c-0.08,0.12-0.16,0.25-0.25,0.39
		c-0.09,0.14-0.17,0.27-0.25,0.38c-0.08,0.11-0.14,0.21-0.19,0.29l-0.63,0.76c-0.12,0.15-0.27,0.24-0.43,0.28
		C154.82,27.27,154.64,27.31,154.44,27.36z"/>
	<path class="st0" d="M164.71,24.22c-0.1-0.12-0.27-0.22-0.52-0.3c-0.25-0.08-0.38-0.16-0.4-0.22c-0.01-0.07-0.07-0.16-0.18-0.28
		c-0.11-0.12-0.2-0.21-0.28-0.26c-0.1-0.08-0.13-0.33-0.09-0.75c0.05-0.42,0.14-0.93,0.28-1.55c0.14-0.62,0.3-1.25,0.49-1.9
		c0.1-0.16,0.2-0.36,0.28-0.61c0.08-0.24,0.15-0.41,0.2-0.49c-0.01-0.07,0-0.13,0.03-0.2c0.04-0.07,0.09-0.11,0.15-0.12l0.11-0.44
		c0.02-0.07,0.09-0.23,0.22-0.46c0.13-0.24,0.29-0.5,0.49-0.79c0.19-0.29,0.39-0.58,0.6-0.85c0.21-0.27,0.38-0.47,0.53-0.61
		c0.29-0.31,0.63-0.49,1-0.56c0.38-0.07,0.72-0.02,1.03,0.13c0.06,0.04,0.19,0.11,0.4,0.22c0.21,0.11,0.44,0.23,0.7,0.36
		c0.26,0.13,0.49,0.25,0.69,0.37l1.1,0.61l-0.15,1.33c-0.07,0.71,0,1.3,0.21,1.77c0.21,0.47,0.46,0.87,0.75,1.18
		c0.12,0.16,0.27,0.28,0.43,0.35c0.16,0.07,0.36,0.09,0.6,0.07c0.14-0.01,0.27,0.01,0.4,0.07c0.13,0.06,0.22,0.18,0.26,0.36
		c0.09,0.4,0.08,0.7-0.02,0.9c-0.1,0.2-0.23,0.34-0.39,0.41c-0.53,0.19-1.06,0.24-1.6,0.17c-0.53-0.07-1.08-0.44-1.65-1.11
		c-0.09-0.08-0.22-0.25-0.38-0.5c-0.17-0.25-0.27-0.41-0.3-0.49c-0.05,0.1-0.11,0.22-0.19,0.37c-0.08,0.15-0.16,0.28-0.24,0.4
		c-0.91,1.45-1.74,2.44-2.49,2.98C166.05,24.31,165.35,24.46,164.71,24.22z M166.12,21.56c0.22-0.19,0.49-0.5,0.83-0.92
		c0.45-0.6,0.83-1.1,1.12-1.49c0.29-0.39,0.56-0.88,0.79-1.45l0.35-1.01c-0.25-0.34-0.45-0.56-0.61-0.64
		c-0.16-0.09-0.3-0.11-0.43-0.09c-0.21,0.05-0.44,0.24-0.68,0.58c-0.24,0.34-0.48,0.81-0.74,1.41c-0.26,0.6-0.53,1.34-0.82,2.22
		c-0.13,0.41-0.24,0.98-0.32,1.7C165.73,21.86,165.9,21.76,166.12,21.56z"/>
	<path class="st0" d="M181.34,21.23c-0.1,0.09-0.26,0.1-0.47,0.03c-0.22-0.07-0.44-0.2-0.67-0.4c-0.16-0.17-0.29-0.35-0.39-0.55
		c-0.1-0.19-0.2-0.5-0.29-0.91c-0.06-0.33-0.1-0.56-0.14-0.68c-0.04-0.12-0.11-0.11-0.23,0.02c-0.12,0.14-0.34,0.45-0.66,0.94
		c-0.32,0.5-0.63,0.94-0.94,1.31c-0.31,0.37-0.58,0.57-0.81,0.61c-0.12,0.03-0.29-0.01-0.52-0.12c-0.23-0.1-0.46-0.25-0.69-0.43
		c-0.23-0.18-0.41-0.36-0.54-0.54c-0.19-0.37-0.3-0.88-0.35-1.53c-0.05-0.65-0.04-1.33,0.02-2.07c0.06-0.73,0.16-1.43,0.3-2.09
		c0.14-0.66,0.3-1.21,0.49-1.64c0.19-0.43,0.39-0.66,0.59-0.69c0.29-0.03,0.56,0.05,0.82,0.25c0.26,0.19,0.48,0.42,0.66,0.67
		c0.09,0.1,0.14,0.19,0.15,0.28c0.01,0.08-0.04,0.2-0.14,0.34c-0.1,0.23-0.22,0.55-0.34,0.97c-0.12,0.42-0.24,0.86-0.35,1.34
		c-0.11,0.47-0.2,0.92-0.27,1.34c-0.07,0.42-0.11,0.76-0.12,1.03s0.02,0.39,0.08,0.37c0.23-0.05,0.43-0.16,0.6-0.33
		c0.17-0.17,0.37-0.42,0.61-0.77c0.27-0.42,0.5-0.84,0.68-1.25c0.19-0.41,0.37-0.88,0.54-1.4c0.14-0.38,0.29-0.79,0.44-1.24
		c0.15-0.45,0.24-0.76,0.27-0.94c0.13-0.48,0.24-0.84,0.3-1.08c0.07-0.24,0.18-0.4,0.33-0.49c0.08-0.02,0.27-0.06,0.57-0.13
		c0.1-0.01,0.23,0.04,0.4,0.15c0.15,0.04,0.3,0.1,0.47,0.18c0.17,0.08,0.26,0.17,0.28,0.25c-0.03,0.18-0.08,0.45-0.15,0.8
		c-0.07,0.35-0.12,0.61-0.15,0.77c-0.16,0.78-0.3,1.54-0.44,2.29c-0.14,0.75-0.19,1.49-0.17,2.23c0.02,0.24,0.07,0.51,0.17,0.81
		c0.09,0.3,0.19,0.51,0.28,0.62c0.07,0.09,0.16,0.19,0.26,0.29c0.1,0.11,0.21,0.19,0.33,0.25c0.17,0.07,0.19,0.19,0.07,0.37
		c-0.12,0.18-0.28,0.35-0.48,0.51C181.51,21.13,181.39,21.22,181.34,21.23z M178.64,10.37c-0.57,0.14-1.07,0.09-1.49-0.16
		c-0.42-0.25-0.86-0.75-1.32-1.5c-0.09-0.17-0.14-0.34-0.14-0.5c0-0.16,0.01-0.29,0.04-0.39c0.09-0.16,0.2-0.27,0.36-0.33
		c0.15-0.06,0.26-0.08,0.34-0.06c0.25,0.03,0.48,0.1,0.69,0.2c0.21,0.1,0.35,0.32,0.4,0.65c0.05,0.08,0.1,0.15,0.14,0.22
		c0.04,0.07,0.07,0.12,0.1,0.15c0.08,0.1,0.16,0.15,0.26,0.14c0.1-0.01,0.17-0.03,0.22-0.06c0.3-0.2,0.56-0.41,0.79-0.6
		c0.22-0.2,0.42-0.43,0.59-0.69c0.14-0.22,0.27-0.41,0.39-0.57c0.12-0.16,0.24-0.33,0.37-0.54l0.02-0.03
		c0.13-0.17,0.32-0.25,0.54-0.24c0.23,0.01,0.36,0.05,0.39,0.13c0.1,0.06,0.18,0.19,0.25,0.37c0.07,0.18,0.12,0.34,0.14,0.47l0,0.1
		c-0.04,0.13-0.07,0.3-0.1,0.5c-0.02,0.2-0.15,0.44-0.39,0.7c-0.24,0.33-0.49,0.61-0.75,0.84c-0.26,0.23-0.56,0.5-0.89,0.79
		c-0.1,0.09-0.23,0.17-0.39,0.23C179.07,10.26,178.87,10.32,178.64,10.37z"/>
	<path class="st0" d="M191.24,9.28c0.2-0.18,0.48-0.29,0.83-0.33c0.35-0.04,0.67,0.05,0.95,0.24c0.28,0.2,0.4,0.56,0.38,1.08
		c-0.04,0.15-0.08,0.32-0.14,0.52c-0.06,0.2-0.12,0.42-0.17,0.65c-0.05,0.23-0.11,0.44-0.16,0.64c-0.05,0.2-0.08,0.37-0.08,0.51
		l0.02,0.07c0.21,0.02,0.38,0.16,0.49,0.41c0.12,0.25,0.16,0.44,0.14,0.57c-0.08,0.21-0.14,0.34-0.21,0.41
		c-0.06,0.07-0.23,0.17-0.49,0.32c-0.06,0.03-0.11,0.06-0.15,0.08c-0.04,0.03-0.06,0.07-0.06,0.14c0.02,0.32,0.03,0.63,0.03,0.91
		c0,0.28,0,0.56-0.02,0.83c-0.02,0.27-0.04,0.55-0.06,0.83c0,0.14-0.04,0.29-0.1,0.46s-0.26,0.31-0.58,0.41
		c-0.36-0.06-0.61-0.1-0.77-0.13c-0.15-0.03-0.29-0.07-0.4-0.13c-0.11-0.04-0.2-0.2-0.25-0.46c-0.05-0.27-0.07-0.5-0.04-0.72
		c0.03-0.27,0.06-0.5,0.09-0.71c0.03-0.21,0.03-0.52,0.01-0.95c-0.18,0.04-0.35,0.09-0.5,0.15c-0.15,0.06-0.29,0.12-0.43,0.17
		c-0.14,0.06-0.27,0.12-0.4,0.18c-0.13,0.06-0.27,0.12-0.42,0.17c-0.1,0.02-0.21,0.05-0.32,0.07c-0.12,0.03-0.23,0.05-0.35,0.06
		c-0.12,0.02-0.25,0.03-0.41,0.03l-0.08,0.1c0.02,0.17,0,0.4-0.07,0.7c-0.06,0.3-0.06,0.59,0,0.87c0.03,0.22,0.05,0.51,0.05,0.88
		c0.01,0.37,0.02,0.67,0.06,0.91c0.06,0.37-0.09,0.63-0.46,0.79c-0.37,0.16-0.85,0.06-1.45-0.29c-0.08-0.04-0.14-0.08-0.17-0.14
		c-0.04-0.06-0.09-0.14-0.14-0.23l-0.05-1.96c0.01-0.25,0.02-0.48,0.03-0.69c0-0.22,0.02-0.43,0.04-0.64
		c0.05-0.39,0.1-0.81,0.13-1.26c0.04-0.45,0.1-0.81,0.2-1.09c0.02-0.07,0.03-0.18,0.05-0.32c0.01-0.14,0.03-0.29,0.04-0.45
		c0.02-0.16,0.04-0.31,0.06-0.45c0.02-0.14,0.04-0.26,0.05-0.35c0.03-0.18,0.06-0.44,0.1-0.79c0.03-0.34,0.07-0.67,0.11-0.97
		c0.04-0.3,0.05-0.46,0.05-0.48c0.01-0.19,0.08-0.33,0.22-0.42c0.13-0.09,0.25-0.15,0.35-0.17c0.53-0.12,0.92-0.06,1.18,0.18
		c0.26,0.24,0.41,0.47,0.44,0.71c0.01,0.1,0.02,0.2,0.04,0.28c0.02,0.08,0.02,0.15-0.01,0.21l-0.5,3.01l-0.02,0.13
		c0.16-0.04,0.33-0.09,0.49-0.17c0.16-0.08,0.33-0.14,0.49-0.17c0.08-0.03,0.2-0.08,0.37-0.13c0.17-0.05,0.36-0.11,0.59-0.16
		s0.45-0.08,0.7-0.08c0.1-0.56,0.17-1.04,0.2-1.43c0.03-0.4,0.13-0.85,0.29-1.37c0.01-0.04,0.02-0.16,0.03-0.38
		C191.1,9.73,191.15,9.51,191.24,9.28z"/>
</g>
</svg>
