<?xml version="1.0" encoding="utf-8"?>
<!-- Generator: Adobe Illustrator 26.4.1, SVG Export Plug-In . SVG Version: 6.00 Build 0)  -->
<svg version="1.1" id="Слой_1" xmlns="http://www.w3.org/2000/svg" xmlns:xlink="http://www.w3.org/1999/xlink" x="0px" y="0px"
	 viewBox="0 0 146.9 112.6" style="enable-background:new 0 0 146.9 112.6;" xml:space="preserve">
<style type="text/css">
	.st0{fill:#03B4BB;}
	.st1{fill:#FD407A;}
</style>
<g>
	<path class="st0" d="M113.3,0c3.8,0.2,7.7,0.1,11.5,0.8c12.9,2.2,22.1,12.9,22.1,25.7c0.1,28.7,0,57.4-0.1,86.1
		c-32.3,0-64.6,0-96.8,0c0.1-22.8,0.1-45.6,0.2-68.3c0-5.6,0-11.2,0-16.8C50.4,11.8,62.1,0.3,77.9,0.2C89.7,0.1,101.5,0.1,113.3,0z"
		/>
	<path class="st1" d="M51.4,20c3.1,0.2,6.3,0.1,9.3,0.6c10.5,1.8,17.9,10.6,18,21.1c0,23.6,0,47.2,0,70.7c-26.2,0-52.4,0-78.6,0
		c0.1-18.7,0.1-37.5,0.2-56.2c0-4.6,0-9.2,0-13.8c0.1-12.8,9.6-22.3,22.4-22.4C32.2,20.1,41.8,20.1,51.4,20z"/>
</g>
</svg>
